<svg xmlns="http://www.w3.org/2000/svg" viewBox="0 0 40 44">
<rect width="40" height="44" fill="#0d1014"/>
<path d="M20 3 L31 14 L20 14 Z" fill="#3a5c9e"/>
<path d="M9 14 L20 3 L20 14 Z" fill="#4d76c4"/>
<path d="M31 14 L20 25 L20 14 Z" fill="#1c2f5c"/>
<path d="M20 25 L9 14 L20 14 Z" fill="#26417a"/>
<path d="M20 3 L31 14 L20 25 L9 14 Z" fill="none" stroke="#dfe6ef" stroke-width="1.8" stroke-linejoin="round"/>
<path d="M20 9.5 L24.5 14 L20 18.5 L15.5 14 Z" fill="#0d1014" stroke="#aab6c6" stroke-width="1.1" stroke-linejoin="round"/>
<rect x="6" y="28" width="4.4" height="9" rx="1.2" fill="#6d7b8f"/>
<rect x="14" y="28" width="4.4" height="14" rx="1.2" fill="#dfe6ef"/>
<rect x="22" y="28" width="4.4" height="14" rx="1.2" fill="#b8c3d1"/>
<rect x="30" y="28" width="4.4" height="9" rx="1.2" fill="#55627a"/>
</svg>
